<svg version="1.1" viewBox="0.0 0.0 338.54330708661416 455.36482939632543" fill="none" stroke="none" stroke-linecap="square" stroke-miterlimit="10" xmlns:xlink="http://www.w3.org/1999/xlink" xmlns="http://www.w3.org/2000/svg"><clipPath id="p.0"><path d="m0 0l338.5433 0l0 455.36484l-338.5433 0l0 -455.36484z" clip-rule="nonzero"/></clipPath><g clip-path="url(#p.0)"><path fill="#000000" fill-opacity="0.0" d="m0 0l338.5433 0l0 455.36484l-338.5433 0z" fill-rule="evenodd"/><path fill="#cfe2f3" d="m257.4882 139.46654l0 0c0 4.168228 13.516052 7.547241 30.188965 7.547241c16.672913 0 30.188995 -3.379013 30.188995 -7.547241l0 79.48819c0 4.168228 -13.516083 7.547241 -30.188995 7.547241c-16.672913 0 -30.188965 -3.379013 -30.188965 -7.547241z" fill-rule="evenodd"/><path fill="#e2edf7" d="m257.4882 139.46654l0 0c0 -4.168228 13.516052 -7.547241 30.188965 -7.547241c16.672913 0 30.188995 3.379013 30.188995 7.547241l0 0c0 4.168228 -13.516083 7.547241 -30.188995 7.547241c-16.672913 0 -30.188965 -3.379013 -30.188965 -7.547241z" fill-rule="evenodd"/><path fill="#000000" fill-opacity="0.0" d="m317.86615 139.46654l0 0c0 4.168228 -13.516083 7.547241 -30.188995 7.547241c-16.672913 0 -30.188965 -3.379013 -30.188965 -7.547241l0 0c0 -4.168228 13.516052 -7.547241 30.188965 -7.547241c16.672913 0 30.188995 3.379013 30.188995 7.547241l0 79.48819c0 4.168228 -13.516083 7.547241 -30.188995 7.547241c-16.672913 0 -30.188965 -3.379013 -30.188965 -7.547241l0 -79.48819" fill-rule="evenodd"/><path stroke="#000000" stroke-width="1.0" stroke-linejoin="round" stroke-linecap="butt" d="m317.86615 139.46654l0 0c0 4.168228 -13.516083 7.547241 -30.188995 7.547241c-16.672913 0 -30.188965 -3.379013 -30.188965 -7.547241l0 0c0 -4.168228 13.516052 -7.547241 30.188965 -7.547241c16.672913 0 30.188995 3.379013 30.188995 7.547241l0 79.48819c0 4.168228 -13.516083 7.547241 -30.188995 7.547241c-16.672913 0 -30.188965 -3.379013 -30.188965 -7.547241l0 -79.48819" fill-rule="evenodd"/><path fill="#cfe2f3" d="m255.09448 113.04462l0 0c0 -17.664413 14.587769 -31.984253 32.582672 -31.984253c17.994934 0 32.582703 14.3198395 32.582703 31.984253c0 17.664413 -14.587769 31.984253 -32.582703 31.984253c-17.994904 0 -32.582672 -14.3198395 -32.582672 -31.984253z" fill-rule="evenodd"/><path fill="#a5b4c2" d="m273.8446 103.47896c0 -1.8400421 1.5195618 -3.3316956 3.394043 -3.3316956c1.8744507 0 3.3940125 1.4916534 3.3940125 3.3316956c0 1.8400421 -1.5195618 3.3316956 -3.3940125 3.3316956c-1.8744812 0 -3.394043 -1.4916534 -3.394043 -3.3316956m20.877045 0c0 -1.8400421 1.5195618 -3.3316956 3.394043 -3.3316956c1.8744812 0 3.3940125 1.4916534 3.3940125 3.3316956c0 1.8400421 -1.5195312 3.3316956 -3.3940125 3.3316956c-1.8744812 0 -3.394043 -1.4916534 -3.394043 -3.3316956" fill-rule="evenodd"/><path fill="#000000" fill-opacity="0.0" d="m270.01715 126.993164q17.660004 11.905823 35.27881 0" fill-rule="evenodd"/><path fill="#000000" fill-opacity="0.0" d="m255.09448 113.04462l0 0c0 -17.664413 14.587769 -31.984253 32.582672 -31.984253c17.994934 0 32.582703 14.3198395 32.582703 31.984253c0 17.664413 -14.587769 31.984253 -32.582703 31.984253c-17.994904 0 -32.582672 -14.3198395 -32.582672 -31.984253z" fill-rule="evenodd"/><path stroke="#000000" stroke-width="1.0" stroke-linejoin="round" stroke-linecap="butt" d="m273.8446 103.47896c0 -1.8400421 1.5195618 -3.3316956 3.394043 -3.3316956c1.8744507 0 3.3940125 1.4916534 3.3940125 3.3316956c0 1.8400421 -1.5195618 3.3316956 -3.3940125 3.3316956c-1.8744812 0 -3.394043 -1.4916534 -3.394043 -3.3316956m20.877045 0c0 -1.8400421 1.5195618 -3.3316956 3.394043 -3.3316956c1.8744812 0 3.3940125 1.4916534 3.3940125 3.3316956c0 1.8400421 -1.5195312 3.3316956 -3.3940125 3.3316956c-1.8744812 0 -3.394043 -1.4916534 -3.394043 -3.3316956" fill-rule="evenodd"/><path stroke="#000000" stroke-width="1.0" stroke-linejoin="round" stroke-linecap="butt" d="m270.01715 126.993164q17.660004 11.905823 35.27881 0" fill-rule="evenodd"/><path stroke="#000000" stroke-width="1.0" stroke-linejoin="round" stroke-linecap="butt" d="m255.09448 113.04462l0 0c0 -17.664413 14.587769 -31.984253 32.582672 -31.984253c17.994934 0 32.582703 14.3198395 32.582703 31.984253c0 17.664413 -14.587769 31.984253 -32.582703 31.984253c-17.994904 0 -32.582672 -14.3198395 -32.582672 -31.984253z" fill-rule="evenodd"/><path fill="#cfe2f3" d="m150.59842 118.00985l0 0c0 4.168228 13.5160675 7.547241 30.18898 7.547241c16.672913 0 30.18898 -3.379013 30.18898 -7.547241l0 79.48818c0 4.168228 -13.5160675 7.5472565 -30.18898 7.5472565c-16.672913 0 -30.18898 -3.3790283 -30.18898 -7.5472565z" fill-rule="evenodd"/><path fill="#e2edf7" d="m150.59842 118.00985l0 0c0 -4.168228 13.5160675 -7.547249 30.18898 -7.547249c16.672913 0 30.18898 3.3790207 30.18898 7.547249l0 0c0 4.168228 -13.5160675 7.547241 -30.18898 7.547241c-16.672913 0 -30.18898 -3.379013 -30.18898 -7.547241z" fill-rule="evenodd"/><path fill="#000000" fill-opacity="0.0" d="m210.97638 118.00985l0 0c0 4.168228 -13.5160675 7.547241 -30.18898 7.547241c-16.672913 0 -30.18898 -3.379013 -30.18898 -7.547241l0 0c0 -4.168228 13.5160675 -7.547249 30.18898 -7.547249c16.672913 0 30.18898 3.3790207 30.18898 7.547249l0 79.48818c0 4.168228 -13.5160675 7.5472565 -30.18898 7.5472565c-16.672913 0 -30.18898 -3.3790283 -30.18898 -7.5472565l0 -79.48818" fill-rule="evenodd"/><path stroke="#000000" stroke-width="1.0" stroke-linejoin="round" stroke-linecap="butt" d="m210.97638 118.00985l0 0c0 4.168228 -13.5160675 7.547241 -30.18898 7.547241c-16.672913 0 -30.18898 -3.379013 -30.18898 -7.547241l0 0c0 -4.168228 13.5160675 -7.547249 30.18898 -7.547249c16.672913 0 30.18898 3.3790207 30.18898 7.547249l0 79.48818c0 4.168228 -13.5160675 7.5472565 -30.18898 7.5472565c-16.672913 0 -30.18898 -3.3790283 -30.18898 -7.5472565l0 -79.48818" fill-rule="evenodd"/><path fill="#cfe2f3" d="m148.20473 91.58793l0 0c0 -17.664413 14.587753 -31.984253 32.582672 -31.984253c17.994919 0 32.582672 14.3198395 32.582672 31.984253c0 17.664413 -14.587753 31.984253 -32.582672 31.984253c-17.994919 0 -32.582672 -14.3198395 -32.582672 -31.984253z" fill-rule="evenodd"/><path fill="#a5b4c2" d="m166.95485 82.02226c0 -1.8400421 1.5195618 -3.331688 3.3940277 -3.331688c1.874466 0 3.3940277 1.4916458 3.3940277 3.331688c0 1.8400497 -1.5195618 3.3316956 -3.3940277 3.3316956c-1.874466 0 -3.3940277 -1.4916458 -3.3940277 -3.3316956m20.877045 0c0 -1.8400421 1.5195618 -3.331688 3.3940277 -3.331688c1.8744812 0 3.3940277 1.4916458 3.3940277 3.331688c0 1.8400497 -1.5195465 3.3316956 -3.3940277 3.3316956c-1.874466 0 -3.3940277 -1.4916458 -3.3940277 -3.3316956" fill-rule="evenodd"/><path fill="#000000" fill-opacity="0.0" d="m163.12738 105.53647q17.660019 11.905823 35.27881 0" fill-rule="evenodd"/><path fill="#000000" fill-opacity="0.0" d="m148.20473 91.58793l0 0c0 -17.664413 14.587753 -31.984253 32.582672 -31.984253c17.994919 0 32.582672 14.3198395 32.582672 31.984253c0 17.664413 -14.587753 31.984253 -32.582672 31.984253c-17.994919 0 -32.582672 -14.3198395 -32.582672 -31.984253z" fill-rule="evenodd"/><path stroke="#000000" stroke-width="1.0" stroke-linejoin="round" stroke-linecap="butt" d="m166.95485 82.02226c0 -1.8400421 1.5195618 -3.331688 3.3940277 -3.331688c1.874466 0 3.3940277 1.4916458 3.3940277 3.331688c0 1.8400497 -1.5195618 3.3316956 -3.3940277 3.3316956c-1.874466 0 -3.3940277 -1.4916458 -3.3940277 -3.3316956m20.877045 0c0 -1.8400421 1.5195618 -3.331688 3.3940277 -3.331688c1.8744812 0 3.3940277 1.4916458 3.3940277 3.331688c0 1.8400497 -1.5195465 3.3316956 -3.3940277 3.3316956c-1.874466 0 -3.3940277 -1.4916458 -3.3940277 -3.3316956" fill-rule="evenodd"/><path stroke="#000000" stroke-width="1.0" stroke-linejoin="round" stroke-linecap="butt" d="m163.12738 105.53647q17.660019 11.905823 35.27881 0" fill-rule="evenodd"/><path stroke="#000000" stroke-width="1.0" stroke-linejoin="round" stroke-linecap="butt" d="m148.20473 91.58793l0 0c0 -17.664413 14.587753 -31.984253 32.582672 -31.984253c17.994919 0 32.582672 14.3198395 32.582672 31.984253c0 17.664413 -14.587753 31.984253 -32.582672 31.984253c-17.994919 0 -32.582672 -14.3198395 -32.582672 -31.984253z" fill-rule="evenodd"/><path fill="#cfe2f3" d="m43.70866 129.13583l0 0c0 4.168228 13.5160675 7.547241 30.188976 7.547241c16.672913 0 30.18898 -3.379013 30.18898 -7.547241l0 79.48819c0 4.168228 -13.5160675 7.547241 -30.18898 7.547241c-16.672909 0 -30.188976 -3.379013 -30.188976 -7.547241z" fill-rule="evenodd"/><path fill="#e2edf7" d="m43.70866 129.13583l0 0c0 -4.168228 13.5160675 -7.547249 30.188976 -7.547249c16.672913 0 30.18898 3.3790207 30.18898 7.547249l0 0c0 4.168228 -13.5160675 7.547241 -30.18898 7.547241c-16.672909 0 -30.188976 -3.379013 -30.188976 -7.547241z" fill-rule="evenodd"/><path fill="#000000" fill-opacity="0.0" d="m104.08662 129.13583l0 0c0 4.168228 -13.5160675 7.547241 -30.18898 7.547241c-16.672909 0 -30.188976 -3.379013 -30.188976 -7.547241l0 0c0 -4.168228 13.5160675 -7.547249 30.188976 -7.547249c16.672913 0 30.18898 3.3790207 30.18898 7.547249l0 79.48819c0 4.168228 -13.5160675 7.547241 -30.18898 7.547241c-16.672909 0 -30.188976 -3.379013 -30.188976 -7.547241l0 -79.48819" fill-rule="evenodd"/><path stroke="#000000" stroke-width="1.0" stroke-linejoin="round" stroke-linecap="butt" d="m104.08662 129.13583l0 0c0 4.168228 -13.5160675 7.547241 -30.18898 7.547241c-16.672909 0 -30.188976 -3.379013 -30.188976 -7.547241l0 0c0 -4.168228 13.5160675 -7.547249 30.188976 -7.547249c16.672913 0 30.18898 3.3790207 30.18898 7.547249l0 79.48819c0 4.168228 -13.5160675 7.547241 -30.18898 7.547241c-16.672909 0 -30.188976 -3.379013 -30.188976 -7.547241l0 -79.48819" fill-rule="evenodd"/><path fill="#cfe2f3" d="m41.31496 102.71391l0 0c0 -17.664413 14.587761 -31.984253 32.582676 -31.984253c17.994919 0 32.58268 14.3198395 32.58268 31.984253c0 17.664413 -14.587761 31.984253 -32.58268 31.984253c-17.994915 0 -32.582676 -14.3198395 -32.582676 -31.984253z" fill-rule="evenodd"/><path fill="#a5b4c2" d="m60.065086 93.14825c0 -1.8400421 1.519558 -3.331688 3.3940277 -3.331688c1.874466 0 3.3940277 1.4916458 3.3940277 3.331688c0 1.8400497 -1.5195618 3.3316956 -3.3940277 3.3316956c-1.8744698 0 -3.3940277 -1.4916458 -3.3940277 -3.3316956m20.877045 0c0 -1.8400421 1.5195618 -3.331688 3.3940277 -3.331688c1.8744736 0 3.3940353 1.4916458 3.3940353 3.331688c0 1.8400497 -1.5195618 3.3316956 -3.3940353 3.3316956c-1.874466 0 -3.3940277 -1.4916458 -3.3940277 -3.3316956" fill-rule="evenodd"/><path fill="#000000" fill-opacity="0.0" d="m56.237614 116.66245q17.660023 11.905815 35.278805 0" fill-rule="evenodd"/><path fill="#000000" fill-opacity="0.0" d="m41.31496 102.71391l0 0c0 -17.664413 14.587761 -31.984253 32.582676 -31.984253c17.994919 0 32.58268 14.3198395 32.58268 31.984253c0 17.664413 -14.587761 31.984253 -32.58268 31.984253c-17.994915 0 -32.582676 -14.3198395 -32.582676 -31.984253z" fill-rule="evenodd"/><path stroke="#000000" stroke-width="1.0" stroke-linejoin="round" stroke-linecap="butt" d="m60.065086 93.14825c0 -1.8400421 1.519558 -3.331688 3.3940277 -3.331688c1.874466 0 3.3940277 1.4916458 3.3940277 3.331688c0 1.8400497 -1.5195618 3.3316956 -3.3940277 3.3316956c-1.8744698 0 -3.3940277 -1.4916458 -3.3940277 -3.3316956m20.877045 0c0 -1.8400421 1.5195618 -3.331688 3.3940277 -3.331688c1.8744736 0 3.3940353 1.4916458 3.3940353 3.331688c0 1.8400497 -1.5195618 3.3316956 -3.3940353 3.3316956c-1.874466 0 -3.3940277 -1.4916458 -3.3940277 -3.3316956" fill-rule="evenodd"/><path stroke="#000000" stroke-width="1.0" stroke-linejoin="round" stroke-linecap="butt" d="m56.237614 116.66245q17.660023 11.905815 35.278805 0" fill-rule="evenodd"/><path stroke="#000000" stroke-width="1.0" stroke-linejoin="round" stroke-linecap="butt" d="m41.31496 102.71391l0 0c0 -17.664413 14.587761 -31.984253 32.582676 -31.984253c17.994919 0 32.58268 14.3198395 32.58268 31.984253c0 17.664413 -14.587761 31.984253 -32.58268 31.984253c-17.994915 0 -32.582676 -14.3198395 -32.582676 -31.984253z" fill-rule="evenodd"/><path fill="#cfe2f3" d="m48.46982 256.69815l0 0c0 -48.279236 54.614204 -87.41731 121.98425 -87.41731l0 0c67.37004 0 121.98425 39.138077 121.98425 87.41731l0 0c0 48.279266 -54.614212 87.41733 -121.98425 87.41733l0 0c-67.37005 0 -121.98425 -39.13806 -121.98425 -87.41733z" fill-rule="evenodd"/><path stroke="#000000" stroke-width="1.0" stroke-linejoin="round" stroke-linecap="butt" d="m48.46982 256.69815l0 0c0 -48.279236 54.614204 -87.41731 121.98425 -87.41731l0 0c67.37004 0 121.98425 39.138077 121.98425 87.41731l0 0c0 48.279266 -54.614212 87.41733 -121.98425 87.41733l0 0c-67.37005 0 -121.98425 -39.13806 -121.98425 -87.41733z" fill-rule="evenodd"/><path fill="#00ff00" d="m135.1076 340.52692l0 0c0 4.168213 13.5160675 7.547241 30.18898 7.547241c16.672913 0 30.18898 -3.3790283 30.18898 -7.547241l0 79.48819c0 4.168213 -13.5160675 7.547241 -30.18898 7.547241c-16.672913 0 -30.18898 -3.3790283 -30.18898 -7.547241z" fill-rule="evenodd"/><path fill="#66ff66" d="m135.1076 340.52692l0 0c0 -4.1682434 13.5160675 -7.547241 30.18898 -7.547241c16.672913 0 30.18898 3.3789978 30.18898 7.547241l0 0c0 4.168213 -13.5160675 7.547241 -30.18898 7.547241c-16.672913 0 -30.18898 -3.3790283 -30.18898 -7.547241z" fill-rule="evenodd"/><path fill="#000000" fill-opacity="0.0" d="m195.48557 340.52692l0 0c0 4.168213 -13.5160675 7.547241 -30.18898 7.547241c-16.672913 0 -30.18898 -3.3790283 -30.18898 -7.547241l0 0c0 -4.1682434 13.5160675 -7.547241 30.18898 -7.547241c16.672913 0 30.18898 3.3789978 30.18898 7.547241l0 79.48819c0 4.168213 -13.5160675 7.547241 -30.18898 7.547241c-16.672913 0 -30.18898 -3.3790283 -30.18898 -7.547241l0 -79.48819" fill-rule="evenodd"/><path stroke="#000000" stroke-width="1.0" stroke-linejoin="round" stroke-linecap="butt" d="m195.48557 340.52692l0 0c0 4.168213 -13.5160675 7.547241 -30.18898 7.547241c-16.672913 0 -30.18898 -3.3790283 -30.18898 -7.547241l0 0c0 -4.1682434 13.5160675 -7.547241 30.18898 -7.547241c16.672913 0 30.18898 3.3789978 30.18898 7.547241l0 79.48819c0 4.168213 -13.5160675 7.547241 -30.18898 7.547241c-16.672913 0 -30.18898 -3.3790283 -30.18898 -7.547241l0 -79.48819" fill-rule="evenodd"/><path fill="#00ff00" d="m132.71391 314.10498l0 0c0 -17.664398 14.587753 -31.984253 32.582672 -31.984253c17.994919 0 32.582687 14.319855 32.582687 31.984253c0 17.664429 -14.587769 31.984253 -32.582687 31.984253c-17.994919 0 -32.582672 -14.319824 -32.582672 -31.984253z" fill-rule="evenodd"/><path fill="#00cb00" d="m151.46404 304.53934c0 -1.8400574 1.5195618 -3.3316956 3.3940277 -3.3316956c1.874466 0 3.3940277 1.4916382 3.3940277 3.3316956c0 1.8400269 -1.5195618 3.3316956 -3.3940277 3.3316956c-1.874466 0 -3.3940277 -1.4916687 -3.3940277 -3.3316956m20.877045 0c0 -1.8400574 1.5195618 -3.3316956 3.3940277 -3.3316956c1.8744812 0 3.3940277 1.4916382 3.3940277 3.3316956c0 1.8400269 -1.5195465 3.3316956 -3.3940277 3.3316956c-1.874466 0 -3.3940277 -1.4916687 -3.3940277 -3.3316956" fill-rule="evenodd"/><path fill="#000000" fill-opacity="0.0" d="m147.63657 328.05353q17.660019 11.905823 35.27881 0" fill-rule="evenodd"/><path fill="#000000" fill-opacity="0.0" d="m132.71391 314.10498l0 0c0 -17.664398 14.587753 -31.984253 32.582672 -31.984253c17.994919 0 32.582687 14.319855 32.582687 31.984253c0 17.664429 -14.587769 31.984253 -32.582687 31.984253c-17.994919 0 -32.582672 -14.319824 -32.582672 -31.984253z" fill-rule="evenodd"/><path stroke="#000000" stroke-width="1.0" stroke-linejoin="round" stroke-linecap="butt" d="m151.46404 304.53934c0 -1.8400574 1.5195618 -3.3316956 3.3940277 -3.3316956c1.874466 0 3.3940277 1.4916382 3.3940277 3.3316956c0 1.8400269 -1.5195618 3.3316956 -3.3940277 3.3316956c-1.874466 0 -3.3940277 -1.4916687 -3.3940277 -3.3316956m20.877045 0c0 -1.8400574 1.5195618 -3.3316956 3.3940277 -3.3316956c1.8744812 0 3.3940277 1.4916382 3.3940277 3.3316956c0 1.8400269 -1.5195465 3.3316956 -3.3940277 3.3316956c-1.874466 0 -3.3940277 -1.4916687 -3.3940277 -3.3316956" fill-rule="evenodd"/><path stroke="#000000" stroke-width="1.0" stroke-linejoin="round" stroke-linecap="butt" d="m147.63657 328.05353q17.660019 11.905823 35.27881 0" fill-rule="evenodd"/><path stroke="#000000" stroke-width="1.0" stroke-linejoin="round" stroke-linecap="butt" d="m132.71391 314.10498l0 0c0 -17.664398 14.587753 -31.984253 32.582672 -31.984253c17.994919 0 32.582687 14.319855 32.582687 31.984253c0 17.664429 -14.587769 31.984253 -32.582687 31.984253c-17.994919 0 -32.582672 -14.319824 -32.582672 -31.984253z" fill-rule="evenodd"/><path fill="#000000" fill-opacity="0.0" d="m127.944885 284.50394l-53.228348 -117.60629" fill-rule="evenodd"/><path stroke="#000000" stroke-width="1.0" stroke-linejoin="round" stroke-linecap="butt" d="m127.944885 284.50394l-50.754364 -112.14009" fill-rule="evenodd"/><path fill="#000000" stroke="#000000" stroke-width="1.0" stroke-linecap="butt" d="m78.69531 171.68279l-3.3759918 -3.453308l0.36642456 4.8154297z" fill-rule="evenodd"/><path fill="#000000" fill-opacity="0.0" d="m104.08662 168.87993l49.291344 102.110245" fill-rule="evenodd"/><path stroke="#000000" stroke-width="1.0" stroke-linejoin="round" stroke-linecap="butt" d="m104.08662 168.87993l46.68299 96.70686" fill-rule="evenodd"/><path fill="#000000" stroke="#000000" stroke-width="1.0" stroke-linecap="butt" d="m149.2821 266.30484l3.4603271 3.3687744l-0.48535156 -4.8048706z" fill-rule="evenodd"/><path fill="#000000" fill-opacity="0.0" d="m167.67192 288.28085l8.755905 -136.69293" fill-rule="evenodd"/><path stroke="#000000" stroke-width="1.0" stroke-linejoin="round" stroke-linecap="butt" d="m167.67192 288.28085l8.372345 -130.7052" fill-rule="evenodd"/><path fill="#000000" stroke="#000000" stroke-width="1.0" stroke-linecap="butt" d="m177.69263 157.68124l-1.3582611 -4.6343994l-1.938446 4.423218z" fill-rule="evenodd"/><path fill="#000000" fill-opacity="0.0" d="m193.11023 164.50394l-10.330704 111.24408" fill-rule="evenodd"/><path stroke="#000000" stroke-width="1.0" stroke-linejoin="round" stroke-linecap="butt" d="m193.11023 164.50394l-9.775894 105.269806" fill-rule="evenodd"/><path fill="#000000" stroke="#000000" stroke-width="1.0" stroke-linecap="butt" d="m181.68968 269.621l1.2250214 4.6713867l2.0642853 -4.365906z" fill-rule="evenodd"/><path fill="#000000" fill-opacity="0.0" d="m206.62204 274.1706l77.85828 -93.03935" fill-rule="evenodd"/><path stroke="#000000" stroke-width="1.0" stroke-linejoin="round" stroke-linecap="butt" d="m206.62204 274.1706l74.00769 -88.43796" fill-rule="evenodd"/><path fill="#000000" stroke="#000000" stroke-width="1.0" stroke-linecap="butt" d="m281.89642 186.79266l1.6456909 -4.5402985l-4.1791077 2.4202423z" fill-rule="evenodd"/><path fill="#000000" fill-opacity="0.0" d="m299.19684 197.08661l-85.82677 88.22049" fill-rule="evenodd"/><path stroke="#000000" stroke-width="1.0" stroke-linejoin="round" stroke-linecap="butt" d="m299.19684 197.08661l-81.64287 83.91989" fill-rule="evenodd"/><path fill="#000000" stroke="#000000" stroke-width="1.0" stroke-linecap="butt" d="m216.37007 279.85474l-1.9805908 4.4045105l4.3483887 -2.1009521z" fill-rule="evenodd"/><path fill="#000000" fill-opacity="0.0" d="m201.85301 353.64304l122.39369 0l0 44.503937l-122.39369 0z" fill-rule="evenodd"/><path fill="#000000" d="m217.80614 380.56305l-1.640625 0l0 -10.453125q-0.59375 0.5625 -1.5625 1.140625q-0.953125 0.5625 -1.71875 0.84375l0 -1.59375q1.375 -0.640625 2.40625 -1.5625q1.03125 -0.921875 1.453125 -1.78125l1.0625 0l0 13.40625zm5.078842 0l0 -1.875l1.875 0l0 1.875q0 1.03125 -0.375 1.65625q-0.359375 0.640625 -1.15625 0.984375l-0.453125 -0.703125q0.515625 -0.21875 0.765625 -0.671875q0.25 -0.4375 0.28125 -1.265625l-0.9375 0zm9.491608 -3.53125l1.640625 -0.21875q0.28125 1.40625 0.953125 2.015625q0.6875 0.609375 1.65625 0.609375q1.15625 0 1.953125 -0.796875q0.796875 -0.796875 0.796875 -1.984375q0 -1.125 -0.734375 -1.859375q-0.734375 -0.734375 -1.875 -0.734375q-0.46875 0 -1.15625 0.171875l0.1875 -1.4375q0.15625 0.015625 0.265625 0.015625q1.046875 0 1.875 -0.546875q0.84375 -0.546875 0.84375 -1.671875q0 -0.90625 -0.609375 -1.5q-0.609375 -0.59375 -1.578125 -0.59375q-0.953125 0 -1.59375 0.609375q-0.640625 0.59375 -0.8125 1.796875l-1.640625 -0.296875q0.296875 -1.640625 1.359375 -2.546875q1.0625 -0.90625 2.65625 -0.90625q1.09375 0 2.0 0.46875q0.921875 0.46875 1.40625 1.28125q0.5 0.8125 0.5 1.71875q0 0.859375 -0.46875 1.578125q-0.46875 0.703125 -1.375 1.125q1.1875 0.28125 1.84375 1.140625q0.65625 0.859375 0.65625 2.15625q0 1.734375 -1.28125 2.953125q-1.265625 1.21875 -3.21875 1.21875q-1.765625 0 -2.921875 -1.046875q-1.15625 -1.046875 -1.328125 -2.71875zm11.250717 3.53125l0 -1.875l1.875 0l0 1.875q0 1.03125 -0.375 1.65625q-0.359375 0.640625 -1.15625 0.984375l-0.453125 -0.703125q0.515625 -0.21875 0.765625 -0.671875q0.25 -0.4375 0.28125 -1.265625l-0.9375 0zm9.491608 -3.5l1.71875 -0.140625q0.1875 1.25 0.875 1.890625q0.70314026 0.625 1.6875153 0.625q1.1875 0 2.0 -0.890625q0.828125 -0.890625 0.828125 -2.359375q0 -1.40625 -0.796875 -2.21875q-0.78125 -0.8125 -2.0625 -0.8125q-0.78125 0 -1.4218903 0.359375q-0.640625 0.359375 -1.0 0.9375l-1.546875 -0.203125l1.296875 -6.859375l6.6406403 0l0 1.5625l-5.328125 0l-0.71876526 3.59375q1.2031403 -0.84375 2.5156403 -0.84375q1.75 0 2.953125 1.21875q1.203125 1.203125 1.203125 3.109375q0 1.8125 -1.046875 3.140625q-1.296875 1.625 -3.515625 1.625q-1.8125153 0 -2.9687653 -1.015625q-1.15625 -1.03125 -1.3125 -2.71875zm11.250717 3.5l0 -1.875l1.875 0l0 1.875q0 1.03125 -0.375 1.65625q-0.359375 0.640625 -1.15625 0.984375l-0.453125 -0.703125q0.515625 -0.21875 0.765625 -0.671875q0.25 -0.4375 0.28125 -1.265625l-0.9375 0zm9.600983 -11.609375l0 -1.578125l8.640625 0l0 1.28125q-1.28125 1.359375 -2.53125 3.609375q-1.25 2.25 -1.9375 4.625q-0.484375 1.671875 -0.625 3.671875l-1.6875 0q0.03125 -1.578125 0.625 -3.8125q0.59375 -2.234375 1.6875 -4.296875q1.109375 -2.078125 2.359375 -3.5l-6.53125 0z" fill-rule="nonzero"/><path fill="#000000" fill-opacity="0.0" d="m278.93964 30.992126l37.35434 0l0 32.598423l-37.35434 0z" fill-rule="evenodd"/><path fill="#000000" d="m297.2209 47.834l-1.625 0.125q-0.21875 -0.96875 -0.625 -1.40625q-0.65625 -0.703125 -1.640625 -0.703125q-0.78125 0 -1.375 0.4375q-0.765625 0.5625 -1.21875 1.65625q-0.453125 1.078125 -0.46875 3.078125q0.59375 -0.890625 1.453125 -1.328125q0.859375 -0.4375 1.796875 -0.4375q1.640625 0 2.78125 1.203125q1.15625 1.203125 1.15625 3.109375q0 1.265625 -0.546875 2.34375q-0.53125 1.078125 -1.484375 1.65625q-0.9375 0.578125 -2.140625 0.578125q-2.0625 0 -3.359375 -1.5q-1.28125 -1.515625 -1.28125 -4.984375q0 -3.875 1.421875 -5.625q1.25 -1.53125 3.375 -1.53125q1.5625 0 2.5625 0.890625q1.015625 0.875 1.21875 2.4375zm-6.6875 5.75q0 0.84375 0.359375 1.625q0.359375 0.765625 1.0 1.171875q0.640625 0.40625 1.359375 0.40625q1.03125 0 1.78125 -0.828125q0.75 -0.84375 0.75 -2.28125q0 -1.390625 -0.734375 -2.1875q-0.734375 -0.796875 -1.859375 -0.796875q-1.109375 0 -1.890625 0.796875q-0.765625 0.796875 -0.765625 2.09375z" fill-rule="nonzero"/><path fill="#000000" fill-opacity="0.0" d="m162.11023 10.328084l37.35434 0l0 32.598427l-37.35434 0z" fill-rule="evenodd"/><path fill="#000000" d="m177.14148 37.24808l0 -3.203125l-5.796875 0l0 -1.5l6.09375 -8.65625l1.34375 0l0 8.65625l1.796875 0l0 1.5l-1.796875 0l0 3.203125l-1.640625 0zm0 -4.703125l0 -6.015625l-4.1875 6.015625l4.1875 0z" fill-rule="nonzero"/><path fill="#000000" fill-opacity="0.0" d="m48.46982 27.005249l37.354332 0l0 32.598427l-37.354332 0z" fill-rule="evenodd"/><path fill="#000000" d="m66.86044 52.347122l0 1.578125l-8.828125 0q-0.015625 -0.59375 0.1875 -1.140625q0.34375 -0.90625 1.078125 -1.78125q0.75 -0.875 2.15625 -2.015625q2.171875 -1.78125 2.9375 -2.828125q0.765625 -1.046875 0.765625 -1.96875q0 -0.984375 -0.703125 -1.640625q-0.6875 -0.671875 -1.8125 -0.671875q-1.1875 0 -1.90625 0.71875q-0.703125 0.703125 -0.703125 1.953125l-1.6875 -0.171875q0.171875 -1.890625 1.296875 -2.875q1.140625 -0.984375 3.03125 -0.984375q1.921875 0 3.046875 1.0625q1.125 1.0625 1.125 2.640625q0 0.796875 -0.328125 1.578125q-0.328125 0.78125 -1.09375 1.640625q-0.75 0.84375 -2.53125 2.34375q-1.46875 1.234375 -1.890625 1.6875q-0.421875 0.4375 -0.6875 0.875l6.546875 0z" fill-rule="nonzero"/></g></svg>